<svg
  height='300px'
  width='300px'
  fill="#000000"
  xmlns="http://www.w3.org/2000/svg"
  xmlns:xlink="http://www.w3.org/1999/xlink"
  version="1.1"
  x="0px"
  y="0px"
  viewBox="0 0 54 64"
  style="enable-background:new 0 0 54 64;"
  xml:space="preserve"
>
    <g>
        <g>
            <path
        d="M24,11h6c1.654,0,3-1.346,3-3s-1.346-3-3-3h-6c-1.654,0-3,1.346-3,3S22.346,11,24,11z M24,7h6c0.551,0,1,0.448,1,1    s-0.449,1-1,1h-6c-0.551,0-1-0.448-1-1S23.449,7,24,7z"
      />
            <path
        d="M54,34c0-1.304-0.836-2.416-2-2.829V18.829c1.164-0.413,2-1.525,2-2.829s-0.836-2.416-2-2.829V1c0-0.553-0.448-1-1-1H3    C2.448,0,2,0.447,2,1v12.171C0.836,13.584,0,14.696,0,16s0.836,2.416,2,2.829v12.342C0.836,31.584,0,32.696,0,34    s0.836,2.416,2,2.829v12.342C0.836,49.584,0,50.696,0,52s0.836,2.416,2,2.829V59c0,2.757,2.243,5,5,5h40c2.757,0,5-2.243,5-5    v-4.171c1.164-0.413,2-1.525,2-2.829s-0.836-2.416-2-2.829V36.829C53.164,36.416,54,35.304,54,34z M50,2v11H4V2H50z M3,15h48    c0.551,0,1,0.448,1,1s-0.449,1-1,1H3c-0.551,0-1-0.448-1-1S2.449,15,3,15z M50,31H4V19h46V31z M47,62H7c-1.654,0-3-1.346-3-3v-4    h46v4C50,60.654,48.654,62,47,62z M51,53H3c-0.551,0-1-0.448-1-1s0.449-1,1-1h48c0.551,0,1,0.448,1,1S51.551,53,51,53z M4,37h46    v12H4V37z M51,35H3c-0.551,0-1-0.448-1-1s0.449-1,1-1h48c0.551,0,1,0.448,1,1S51.551,35,51,35z"
      />
        </g>
    </g>
</svg>
